<svg width="154" height="33" viewBox="0 0 154 33" fill="none" xmlns="http://www.w3.org/2000/svg">
<path d="M11.928 26V10.634H6.598V7.8H20.742V10.634H15.438V26H11.928ZM25.0822 26.312C24.0075 26.312 23.1148 26.1387 22.4042 25.792C21.6935 25.4453 21.1648 24.9773 20.8182 24.388C20.4888 23.7987 20.3242 23.1487 20.3242 22.438C20.3242 21.6407 20.5235 20.9473 20.9222 20.358C21.3382 19.7513 21.9622 19.2747 22.7942 18.928C23.6262 18.5813 24.6662 18.408 25.9142 18.408H29.1642C29.1642 17.784 29.0688 17.2727 28.8782 16.874C28.7048 16.458 28.4362 16.146 28.0722 15.938C27.7082 15.73 27.2315 15.626 26.6422 15.626C25.9835 15.626 25.4115 15.782 24.9262 16.094C24.4408 16.3887 24.1462 16.8393 24.0422 17.446H20.6362C20.7228 16.4927 21.0348 15.6693 21.5722 14.976C22.1095 14.2827 22.8202 13.7453 23.7042 13.364C24.5882 12.9827 25.5762 12.792 26.6682 12.792C27.8988 12.792 28.9648 13 29.8662 13.416C30.7675 13.8147 31.4608 14.4127 31.9462 15.21C32.4315 15.99 32.6742 16.9433 32.6742 18.07V26H29.7362L29.3462 23.998H29.3202C29.1295 24.3447 28.8955 24.6567 28.6182 24.934C28.3582 25.2113 28.0548 25.454 27.7082 25.662C27.3615 25.87 26.9715 26.026 26.5382 26.13C26.1048 26.2513 25.6195 26.312 25.0822 26.312ZM25.9662 23.608C26.4342 23.608 26.8415 23.53 27.1882 23.374C27.5522 23.2007 27.8642 22.9753 28.1242 22.698C28.3842 22.4207 28.5835 22.1 28.7222 21.736C28.8782 21.372 28.9822 20.982 29.0342 20.566H26.3302C25.7928 20.566 25.3508 20.6353 25.0042 20.774C24.6575 20.8953 24.4062 21.0773 24.2502 21.32C24.0942 21.5453 24.0162 21.814 24.0162 22.126C24.0162 22.438 24.0942 22.7067 24.2502 22.932C24.4235 23.1573 24.6575 23.3307 24.9522 23.452C25.2468 23.556 25.5848 23.608 25.9662 23.608ZM41.05 26.312C39.906 26.312 38.892 26.1213 38.008 25.74C37.1414 25.3587 36.4394 24.8387 35.902 24.18C35.382 23.504 35.0787 22.7413 34.992 21.892H38.502C38.5887 22.204 38.736 22.4987 38.944 22.776C39.1694 23.036 39.4554 23.244 39.802 23.4C40.1487 23.556 40.556 23.634 41.024 23.634C41.492 23.634 41.8734 23.5733 42.168 23.452C42.4627 23.3133 42.6794 23.14 42.818 22.932C42.9567 22.7067 43.026 22.4813 43.026 22.256C43.026 21.9093 42.9134 21.6493 42.688 21.476C42.48 21.2853 42.1767 21.1293 41.778 21.008C41.3794 20.8867 40.9027 20.7567 40.348 20.618C39.776 20.4793 39.1954 20.3233 38.606 20.15C38.034 19.9767 37.5054 19.76 37.02 19.5C36.552 19.2227 36.1707 18.876 35.876 18.46C35.5814 18.044 35.434 17.5153 35.434 16.874C35.434 16.1113 35.642 15.4267 36.058 14.82C36.474 14.196 37.072 13.702 37.852 13.338C38.6494 12.974 39.594 12.792 40.686 12.792C42.246 12.792 43.4854 13.1473 44.404 13.858C45.34 14.5687 45.886 15.548 46.042 16.796H42.74C42.6534 16.38 42.428 16.0593 42.064 15.834C41.7174 15.6087 41.258 15.496 40.686 15.496C40.0794 15.496 39.6114 15.6087 39.282 15.834C38.97 16.042 38.814 16.3193 38.814 16.666C38.814 16.8913 38.9267 17.0993 39.152 17.29C39.3774 17.4633 39.6894 17.6193 40.088 17.758C40.504 17.8793 40.9807 18.0007 41.518 18.122C42.454 18.3473 43.2947 18.59 44.04 18.85C44.8027 19.11 45.4094 19.4827 45.86 19.968C46.3107 20.436 46.536 21.1293 46.536 22.048C46.5534 22.8627 46.3367 23.5907 45.886 24.232C45.4354 24.8733 44.8027 25.3847 43.988 25.766C43.1734 26.13 42.194 26.312 41.05 26.312ZM57.9354 26L52.3194 18.902L57.2854 13.104H61.4454L54.9974 20.358V17.576L62.3034 26H57.9354ZM49.3034 26V7.332H52.8134V26H49.3034Z" fill="#334155"/>
<path d="M70.5771 26.312C69.2598 26.312 68.0811 26.0867 67.0411 25.636C66.0184 25.1853 65.2038 24.5267 64.5971 23.66C64.0078 22.7933 63.7044 21.7447 63.6871 20.514H67.4051C67.4224 21.0513 67.5611 21.5367 67.8211 21.97C68.0811 22.4033 68.4364 22.75 68.8871 23.01C69.3551 23.2527 69.9098 23.374 70.5511 23.374C71.1058 23.374 71.5824 23.2873 71.9811 23.114C72.3971 22.9407 72.7178 22.6893 72.9431 22.36C73.1858 22.0307 73.3071 21.632 73.3071 21.164C73.3071 20.6267 73.1684 20.1847 72.8911 19.838C72.6311 19.4913 72.2758 19.1967 71.8251 18.954C71.3744 18.7113 70.8544 18.4947 70.2651 18.304C69.6931 18.096 69.0864 17.888 68.4451 17.68C67.0411 17.1947 65.9578 16.5707 65.1951 15.808C64.4498 15.028 64.0771 13.988 64.0771 12.688C64.0771 11.6133 64.3371 10.686 64.8571 9.906C65.3944 9.126 66.1311 8.528 67.0671 8.112C68.0031 7.696 69.0691 7.488 70.2651 7.488C71.4958 7.488 72.5704 7.70467 73.4891 8.138C74.4251 8.554 75.1618 9.16067 75.6991 9.958C76.2538 10.7553 76.5398 11.6913 76.5571 12.766H72.8131C72.7958 12.35 72.6744 11.9687 72.4491 11.622C72.2411 11.258 71.9464 10.972 71.5651 10.764C71.1838 10.5387 70.7331 10.426 70.2131 10.426C69.7624 10.4087 69.3464 10.478 68.9651 10.634C68.6011 10.79 68.3064 11.024 68.0811 11.336C67.8731 11.6307 67.7691 12.0033 67.7691 12.454C67.7691 12.8873 67.8731 13.26 68.0811 13.572C68.2891 13.8667 68.5838 14.118 68.9651 14.326C69.3638 14.534 69.8144 14.7333 70.3171 14.924C70.8371 15.0973 71.4004 15.288 72.0071 15.496C72.9258 15.808 73.7578 16.1807 74.5031 16.614C75.2658 17.03 75.8724 17.576 76.3231 18.252C76.7911 18.928 77.0251 19.8207 77.0251 20.93C77.0251 21.8833 76.7738 22.7673 76.2711 23.582C75.7858 24.3967 75.0664 25.0553 74.1131 25.558C73.1598 26.0607 71.9811 26.312 70.5771 26.312ZM79.7214 26V7.332H83.2314V15.08H83.2574C83.6734 14.3693 84.2454 13.8147 84.9734 13.416C85.7014 13 86.5507 12.792 87.5214 12.792C88.596 12.792 89.4974 13.026 90.2254 13.494C90.9707 13.9447 91.534 14.612 91.9154 15.496C92.314 16.38 92.5134 17.472 92.5134 18.772V26H89.0294V19.084C89.0294 18.0093 88.8127 17.186 88.3794 16.614C87.9634 16.042 87.2874 15.756 86.3514 15.756C85.762 15.756 85.2247 15.9033 84.7394 16.198C84.2714 16.4753 83.8987 16.8827 83.6214 17.42C83.3614 17.94 83.2314 18.5813 83.2314 19.344V26H79.7214ZM95.6697 26V13.104H99.1797V26H95.6697ZM97.4377 11.258C96.7964 11.258 96.2764 11.076 95.8777 10.712C95.4791 10.3307 95.2797 9.854 95.2797 9.282C95.2797 8.71 95.4791 8.242 95.8777 7.878C96.2764 7.49667 96.7964 7.306 97.4377 7.306C98.0791 7.306 98.5991 7.49667 98.9977 7.878C99.4137 8.242 99.6217 8.71 99.6217 9.282C99.6217 9.854 99.4137 10.3307 98.9977 10.712C98.5991 11.076 98.0791 11.258 97.4377 11.258ZM103.12 26V11.778C103.12 10.7033 103.302 9.84533 103.666 9.204C104.047 8.54533 104.576 8.06867 105.252 7.774C105.928 7.47933 106.725 7.332 107.644 7.332H109.1V10.322H108.19C107.635 10.322 107.237 10.4347 106.994 10.66C106.751 10.868 106.63 11.2407 106.63 11.778V26H103.12ZM101.378 16.016V13.104H109.36V16.016H101.378ZM117.716 26C116.797 26 115.991 25.8613 115.298 25.584C114.622 25.2893 114.093 24.8127 113.712 24.154C113.331 23.478 113.14 22.5593 113.14 21.398V16.016H110.93V13.104H113.14L113.53 9.594H116.65V13.104H120.082V16.016H116.65V21.45C116.65 22.0393 116.78 22.4553 117.04 22.698C117.3 22.9233 117.742 23.036 118.366 23.036H120.004V26H117.716ZM128.721 26.312C127.404 26.312 126.234 26.0347 125.211 25.48C124.206 24.9253 123.417 24.1453 122.845 23.14C122.273 22.1347 121.987 20.982 121.987 19.682C121.987 18.33 122.264 17.1427 122.819 16.12C123.391 15.08 124.18 14.2653 125.185 13.676C126.208 13.0867 127.395 12.792 128.747 12.792C130.03 12.792 131.156 13.0693 132.127 13.624C133.115 14.1787 133.878 14.9413 134.415 15.912C134.97 16.8653 135.247 17.9487 135.247 19.162C135.247 19.3353 135.247 19.5347 135.247 19.76C135.247 19.968 135.23 20.1847 135.195 20.41H124.509V18.252H131.685C131.633 17.4547 131.33 16.822 130.775 16.354C130.238 15.8687 129.562 15.626 128.747 15.626C128.14 15.626 127.586 15.7647 127.083 16.042C126.58 16.302 126.182 16.7007 125.887 17.238C125.592 17.7753 125.445 18.4513 125.445 19.266V20.02C125.445 20.7133 125.584 21.32 125.861 21.84C126.138 22.36 126.52 22.7587 127.005 23.036C127.508 23.3133 128.071 23.452 128.695 23.452C129.336 23.452 129.874 23.3133 130.307 23.036C130.74 22.7413 131.07 22.3687 131.295 21.918H134.883C134.623 22.7327 134.207 23.478 133.635 24.154C133.063 24.8127 132.361 25.3413 131.529 25.74C130.697 26.1213 129.761 26.312 128.721 26.312ZM137.891 26V13.104H140.985L141.323 15.574C141.653 14.9673 142.043 14.4647 142.493 14.066C142.961 13.65 143.49 13.338 144.079 13.13C144.669 12.9047 145.327 12.792 146.055 12.792V16.51H145.093C144.539 16.51 144.036 16.5707 143.585 16.692C143.135 16.8133 142.745 17.0127 142.415 17.29C142.086 17.5673 141.835 17.9487 141.661 18.434C141.488 18.902 141.401 19.4913 141.401 20.202V26H137.891Z" fill="#AA9CF3"/>
</svg>
